<svg id="Grupo_357" data-name="Grupo 357" xmlns="http://www.w3.org/2000/svg" xmlns:xlink="http://www.w3.org/1999/xlink" width="154.266" height="116.673" viewBox="0 0 154.266 116.673">
  <defs>
    <clipPath id="clip-path">
      <rect id="Rectángulo_378" data-name="Rectángulo 378" width="154.266" height="116.673" fill="none"/>
    </clipPath>
  </defs>
  <g id="Grupo_356" data-name="Grupo 356" clip-path="url(#clip-path)">
    <path id="Trazado_77" data-name="Trazado 77" d="M77.059,116.672q-35.948,0-71.9,0c-4.626,0-5.162-.543-5.162-5.134Q0,58.338,0,5.141C0,.528.511.005,5.159,0Q77.2,0,149.242,0c4.462,0,5.021.563,5.021,4.985q.005,53.342,0,106.684c0,4.42-.576,5-5.02,5q-36.093.007-72.186,0m71.285-92.025H26.469V92.062H148.345ZM5.95,110.728H148.315V98.067H5.95Zm-.108-92.36H148.3V5.955H5.842ZM5.9,91.977H20.311V24.589H5.9Z" transform="translate(0 0)" fill="#eee"/>
    <path id="Trazado_78" data-name="Trazado 78" d="M98.449,90.287c.928-1.341,1.87-2.746,2.859-4.118,1.174-1.626,2.692-2.347,4.44-1.007,1.6,1.229,1.437,2.773.272,4.319a35.314,35.314,0,0,0-6.03,13.664,4.477,4.477,0,0,1-2.863,2.83c-1.967.36-2.685-1.342-2.9-3.165-1.179-10.044-3.575-19.763-8.292-28.766-4.395-8.39-10.29-15.212-20.06-17.453a39.944,39.944,0,0,0-5.45-.635c-1.908-.166-3.244-1.09-3.144-3.043s1.506-2.737,3.434-2.7C71.328,50.4,79.584,55.154,86,63.354c5.442,6.957,8.7,14.975,11.022,23.417.307,1.115.633,2.224.964,3.331.017.056.17.072.465.186" transform="translate(-24.006 -21.043)" fill="#eee"/>
    <path id="Trazado_79" data-name="Trazado 79" d="M162.667,80.56c-.694.382-1.226.932-1.694.883-1.292-.134-2.967-.114-3.742-.9-1.276-1.287-.716-3.033.843-3.9,1.786-.991,2.145-2.27,2.105-4.214a13.012,13.012,0,0,1,10.316-12.946,13.2,13.2,0,1,1-5.5,23.141c-.746-.6-1.435-1.274-2.324-2.069m10.53-.751a7.407,7.407,0,1,0-7.32-7.655,7.456,7.456,0,0,0,7.32,7.655" transform="translate(-65.602 -24.81)" fill="#eee"/>
    <path id="Trazado_80" data-name="Trazado 80" d="M149.438,100.374c-.4,2.414-2.925,5.184-4.537,4.689a4.716,4.716,0,0,1-2.723-2.726c-.49-1.624,2.324-4.362,4.069-4,1.155.239,2.133,1.329,3.191,2.038" transform="translate(-59.565 -41.2)" fill="#eee"/>
    <rect id="Rectángulo_360" data-name="Rectángulo 360" width="7.09" height="7.08" transform="translate(135.348 100.767)" fill="#eee"/>
    <rect id="Rectángulo_361" data-name="Rectángulo 361" width="6.918" height="7.151" transform="translate(27.176 100.725)" fill="#eee"/>
    <rect id="Rectángulo_362" data-name="Rectángulo 362" width="6.978" height="7.091" transform="translate(11.706 100.777)" fill="#eee"/>
    <rect id="Rectángulo_363" data-name="Rectángulo 363" width="7.076" height="7.061" transform="translate(42.597 100.784)" fill="#eee"/>
    <rect id="Rectángulo_364" data-name="Rectángulo 364" width="7.182" height="6.999" transform="translate(58.015 100.834)" fill="#eee"/>
    <rect id="Rectángulo_365" data-name="Rectángulo 365" width="7.116" height="6.964" transform="translate(88.957 100.866)" fill="#eee"/>
    <rect id="Rectángulo_366" data-name="Rectángulo 366" width="7.075" height="6.975" transform="translate(104.424 100.818)" fill="#eee"/>
    <rect id="Rectángulo_367" data-name="Rectángulo 367" width="6.946" height="7.088" transform="translate(73.58 100.815)" fill="#eee"/>
    <rect id="Rectángulo_368" data-name="Rectángulo 368" width="6.842" height="7.085" transform="translate(120.029 100.772)" fill="#eee"/>
    <rect id="Rectángulo_369" data-name="Rectángulo 369" width="7.064" height="7.083" transform="translate(11.661 8.763)" fill="#eee"/>
    <rect id="Rectángulo_370" data-name="Rectángulo 370" width="7.159" height="7.024" transform="translate(42.583 8.716)" fill="#eee"/>
    <rect id="Rectángulo_371" data-name="Rectángulo 371" width="7.073" height="7.017" transform="translate(58.126 8.768)" fill="#eee"/>
    <rect id="Rectángulo_372" data-name="Rectángulo 372" width="7.069" height="7.095" transform="translate(88.977 8.709)" fill="#eee"/>
    <rect id="Rectángulo_373" data-name="Rectángulo 373" width="6.949" height="7.189" transform="translate(104.542 8.662)" fill="#eee"/>
    <rect id="Rectángulo_374" data-name="Rectángulo 374" width="7.091" height="7.051" transform="translate(135.341 8.703)" fill="#eee"/>
    <rect id="Rectángulo_375" data-name="Rectángulo 375" width="7.014" height="7.125" transform="translate(27.119 8.724)" fill="#eee"/>
    <rect id="Rectángulo_376" data-name="Rectángulo 376" width="6.871" height="7.145" transform="translate(73.608 8.676)" fill="#eee"/>
    <rect id="Rectángulo_377" data-name="Rectángulo 377" width="6.936" height="7.111" transform="translate(119.984 8.649)" fill="#eee"/>
  </g>
</svg>
