<svg id="Grupo_111" data-name="Grupo 111" xmlns="http://www.w3.org/2000/svg" xmlns:xlink="http://www.w3.org/1999/xlink" width="150" height="150" viewBox="0 0 150 150">
  <defs>
    <clipPath id="clip-path">
      <rect id="Rectángulo_87" data-name="Rectángulo 87" width="150" height="150" fill="#fff"/>
    </clipPath>
  </defs>
  <g id="Grupo_110" data-name="Grupo 110" clip-path="url(#clip-path)">
    <path id="Trazado_25" data-name="Trazado 25" d="M120.29,107.817A57.483,57.483,0,1,0,43.98,26.7L38.3,23.441,34.916,10.747a2.506,2.506,0,0,0-1.169-1.524l-13-7.48a2.5,2.5,0,0,0-3.661,2.813l2.1,7.888-3.456-1.988a2.5,2.5,0,0,0-2.493,4.336l3.454,1.986L8.819,18.924A2.5,2.5,0,0,0,8.23,23.5l13,7.48a2.491,2.491,0,0,0,1.9.244l12.676-3.451,5.667,3.259A57.085,57.085,0,0,0,35.064,55H28.54l-9.266-9.314a2.507,2.507,0,0,0-1.772-.737H2.5A2.5,2.5,0,0,0,.729,49.211L6.487,55H2.5a2.5,2.5,0,0,0,0,5H6.487L.729,65.789A2.5,2.5,0,0,0,2.5,70.051h15a2.507,2.507,0,0,0,1.772-.738L28.54,60h6.524a57.074,57.074,0,0,0,6.415,23.964l-5.667,3.26L23.135,83.772a2.508,2.508,0,0,0-1.9.244l-13,7.48a2.5,2.5,0,0,0,.589,4.58l7.875,2.145-3.454,1.986a2.5,2.5,0,0,0,2.493,4.336l3.456-1.988-2.1,7.888a2.5,2.5,0,0,0,3.661,2.813l13-7.48a2.506,2.506,0,0,0,1.169-1.524L38.3,91.559l5.675-3.264a57.906,57.906,0,0,0,20.731,19.522l-14.551,38.8A2.5,2.5,0,0,0,52.5,150h10a2.5,2.5,0,0,0,2.321-1.573L70.194,135h44.614l5.371,13.427A2.5,2.5,0,0,0,122.5,150h10a2.5,2.5,0,0,0,2.341-3.379ZM30.354,13.04l1.836,6.883L25.3,15.96,23.465,9.078Zm-7.53,13.09-6.888-3.962L22.807,20.3,29.7,24.259Zm-6.888,66.7,6.888-3.962L29.7,90.741,22.807,94.7Zm7.529,13.09L25.3,99.04l6.889-3.963-1.836,6.882ZM45.84,33.545l8.68,4.992A42.141,42.141,0,0,0,50.127,55h-10A52.078,52.078,0,0,1,45.84,33.545M65.127,60a27.238,27.238,0,0,0,2.414,8.973L58.86,73.966A37.176,37.176,0,0,1,55.127,60Zm28.62-.332c.009-.005.014-.015.022-.02a2.456,2.456,0,0,0,.493-.375c.01-.01.015-.022.025-.033.042-.044.074-.1.112-.146a2.339,2.339,0,0,0,.145-.187c.039-.055.088-.1.123-.159.026-.045.025-.1.048-.141a2.478,2.478,0,0,0,.122-.3,2.7,2.7,0,0,0,.134-.662c0-.051.03-.1.03-.146s-.028-.1-.03-.146a2.611,2.611,0,0,0-.256-.96c-.024-.046-.021-.1-.048-.141s-.073-.071-.1-.115a2.66,2.66,0,0,0-.2-.263,2.481,2.481,0,0,0-.244-.243,2.412,2.412,0,0,0-.255-.195c-.045-.03-.071-.078-.119-.105l-6.095-3.506A7.43,7.43,0,0,1,92.5,50a7.5,7.5,0,1,1,0,15,7.43,7.43,0,0,1-4.849-1.826ZM92.5,70A12.5,12.5,0,1,0,83.18,49.254L74.394,44.2a22.5,22.5,0,1,1,0,26.6l8.786-5.054A12.425,12.425,0,0,0,92.5,70M80.689,53.59A12.029,12.029,0,0,0,80.254,55H70.147a22.287,22.287,0,0,1,1.734-6.476ZM80.254,60a12.029,12.029,0,0,0,.435,1.41l-8.808,5.066A22.287,22.287,0,0,1,70.147,60ZM70.035,73.308a27.5,27.5,0,1,0,0-31.615L61.33,36.685a37.5,37.5,0,1,1,0,41.63Zm-2.494-27.28A27.238,27.238,0,0,0,65.127,55h-10A37.176,37.176,0,0,1,58.86,41.034Zm-51.08,3.921L21.487,55H13.54L8.514,49.949Zm0,15.1H8.514L13.54,60h7.948ZM40.127,60h10A42.141,42.141,0,0,0,54.52,76.462l-8.68,4.993A52.078,52.078,0,0,1,40.127,60m8.215,25.786L57,80.8a42.5,42.5,0,1,0,0-46.61l-8.659-4.981a52.5,52.5,0,1,1,0,56.572M92.5,115a57.4,57.4,0,0,0,13.646-1.65l2.66,6.65H76.194l2.66-6.65A57.4,57.4,0,0,0,92.5,115M60.807,145h-4.7l13.106-34.945q2.355,1.048,4.819,1.885Zm11.386-15,2-5h36.614l2,5Zm52,15L110.97,111.94q2.46-.838,4.817-1.885L128.894,145Z" transform="translate(0)" fill="#fff"/>
  </g>
</svg>
