<svg xmlns="http://www.w3.org/2000/svg" xmlns:xlink="http://www.w3.org/1999/xlink" width="162" height="135" viewBox="0 0 162 135">
  <defs>
    <clipPath id="clip-path">
      <rect id="Rectángulo_55" data-name="Rectángulo 55" width="162" height="135" transform="translate(-0.388 0)" fill="none"/>
    </clipPath>
  </defs>
  <g id="Grupo_92" data-name="Grupo 92" transform="translate(0.63)">
    <g id="Grupo_91" data-name="Grupo 91" transform="translate(-0.241)" clip-path="url(#clip-path)">
      <path id="Trazado_10" data-name="Trazado 10" d="M152.716,0H8.038C3.6,0,0,3.127,0,6.973V109.237c0,3.845,3.6,6.973,8.038,6.973H66.981v13.945H56.264V134.8H104.49v-4.648H93.773V116.209h58.943c4.433,0,8.038-3.127,8.038-6.973V6.973c0-3.845-3.6-6.973-8.038-6.973M8.038,4.648H152.716A2.522,2.522,0,0,1,155.4,6.973V92.967h-5.358V11.621A2.52,2.52,0,0,0,147.358,9.3H13.4a2.52,2.52,0,0,0-2.679,2.324V92.967H5.358V6.973A2.522,2.522,0,0,1,8.038,4.648m8.094,88.319c1.107-40.958,31.249-74.441,69.6-78.588V92.967ZM91.369,79.022h21.159V92.861c-10.9-.817-19.6-6.555-21.159-13.838m-.275-13.945h21.434v9.3H91.094ZM117.886,76.7V65.077h26.677c-1.1,14.666-12.426,26.426-26.677,27.751Zm26.792-36.684a55.357,55.357,0,0,0-28-26.069h28Zm-.123,20.414H91.094V14.016c.891-.031,1.78-.071,2.679-.071,27.251,0,49.5,20.653,50.782,46.484M16.075,64.94V13.945H66.892C43.505,22.253,24.8,41.071,16.075,64.94M91.094,88.687a26.356,26.356,0,0,0,5.63,4.28h-5.63Zm53.585-7.441V92.967h-12.17a35.046,35.046,0,0,0,12.17-11.721M88.415,130.154H72.339V116.209H88.415Zm64.3-18.593H8.038a2.522,2.522,0,0,1-2.679-2.324V97.616H155.4v11.621a2.522,2.522,0,0,1-2.679,2.324" transform="translate(0.234 0)" fill="#573ae7"/>
      <rect id="Rectángulo_53" data-name="Rectángulo 53" width="17" height="5" transform="translate(66.612 102)" fill="#573ae7"/>
      <rect id="Rectángulo_54" data-name="Rectángulo 54" width="6" height="5" transform="translate(88.612 102)" fill="#573ae7"/>
    </g>
  </g>
</svg>
