<svg xmlns="http://www.w3.org/2000/svg" xmlns:xlink="http://www.w3.org/1999/xlink" width="148" height="104" viewBox="0 0 148 104">
  <defs>
    <clipPath id="clip-path">
      <rect id="Rectángulo_67" data-name="Rectángulo 67" width="148" height="104" transform="translate(-0.13 -0.38)" fill="none"/>
    </clipPath>
  </defs>
  <g id="Grupo_98" data-name="Grupo 98" transform="translate(-9 -6)">
    <g id="Grupo_97" data-name="Grupo 97" transform="translate(9.13 6.38)" clip-path="url(#clip-path)">
      <path id="Trazado_11" data-name="Trazado 11" d="M145.277,0H2.462A2.462,2.462,0,0,0,0,2.462v98.493a2.462,2.462,0,0,0,2.462,2.462H145.277a2.462,2.462,0,0,0,2.462-2.462V2.462A2.462,2.462,0,0,0,145.277,0m-2.462,54.171H137.89v-19.7h4.925ZM137.89,24.623h4.925v4.925H137.89ZM4.925,4.925h137.89V19.7H4.925Zm0,19.7H132.966v73.87H4.925ZM137.89,59.1h4.925v39.4H137.89Z" transform="translate(0)" fill="#212832"/>
      <rect id="Rectángulo_58" data-name="Rectángulo 58" width="5" height="6" transform="translate(132.87 9.62)" fill="#212832"/>
      <rect id="Rectángulo_59" data-name="Rectángulo 59" width="5" height="6" transform="translate(122.87 9.62)" fill="#212832"/>
      <rect id="Rectángulo_60" data-name="Rectángulo 60" width="4" height="6" transform="translate(113.87 9.62)" fill="#212832"/>
      <rect id="Rectángulo_61" data-name="Rectángulo 61" width="5" height="6" transform="translate(9.87 9.62)" fill="#212832"/>
      <rect id="Rectángulo_62" data-name="Rectángulo 62" width="34" height="6" transform="translate(19.87 9.62)" fill="#212832"/>
      <path id="Trazado_12" data-name="Trazado 12" d="M61.387,38.774A7.387,7.387,0,1,0,54,31.387a7.394,7.394,0,0,0,7.387,7.387m0-9.849a2.462,2.462,0,1,1-2.462,2.462,2.466,2.466,0,0,1,2.462-2.462" transform="translate(12.483 5.548)" fill="#212832"/>
      <path id="Trazado_13" data-name="Trazado 13" d="M77.387,38.774A7.387,7.387,0,1,0,70,31.387a7.394,7.394,0,0,0,7.387,7.387m0-9.849a2.462,2.462,0,1,1-2.462,2.462,2.466,2.466,0,0,1,2.462-2.462" transform="translate(16.181 5.548)" fill="#212832"/>
      <path id="Trazado_14" data-name="Trazado 14" d="M45.387,38.774A7.387,7.387,0,1,0,38,31.387a7.394,7.394,0,0,0,7.387,7.387m0-9.849a2.462,2.462,0,1,1-2.462,2.462,2.466,2.466,0,0,1,2.462-2.462" transform="translate(8.784 5.548)" fill="#212832"/>
      <path id="Trazado_15" data-name="Trazado 15" d="M121.88,42H18.462A2.462,2.462,0,0,0,16,44.462V59.236A2.463,2.463,0,0,0,18.462,61.7H121.88a2.463,2.463,0,0,0,2.462-2.462V44.462A2.462,2.462,0,0,0,121.88,42m-2.462,14.774H20.925V46.925h98.493Z" transform="translate(3.699 9.709)" fill="#212832"/>
      <rect id="Rectángulo_63" data-name="Rectángulo 63" width="30" height="5" transform="translate(39.87 78.62)" fill="#212832"/>
      <rect id="Rectángulo_64" data-name="Rectángulo 64" width="30" height="5" transform="translate(77.87 78.62)" fill="#212832"/>
      <rect id="Rectángulo_65" data-name="Rectángulo 65" width="30" height="5" transform="translate(39.87 88.62)" fill="#212832"/>
      <rect id="Rectángulo_66" data-name="Rectángulo 66" width="30" height="5" transform="translate(77.87 88.62)" fill="#212832"/>
    </g>
  </g>
</svg>
