<svg id="Grupo_103" data-name="Grupo 103" xmlns="http://www.w3.org/2000/svg" xmlns:xlink="http://www.w3.org/1999/xlink" width="151" height="154" viewBox="0 0 151 154">
  <defs>
    <clipPath id="clip-path">
      <rect id="Rectángulo_79" data-name="Rectángulo 79" width="151" height="154" fill="none"/>
    </clipPath>
  </defs>
  <rect id="Rectángulo_69" data-name="Rectángulo 69" width="5" height="5" transform="translate(54 26)" fill="#dcb6f4"/>
  <rect id="Rectángulo_70" data-name="Rectángulo 70" width="5" height="6" transform="translate(64 33)" fill="#dcb6f4"/>
  <rect id="Rectángulo_71" data-name="Rectángulo 71" width="5" height="5" transform="translate(49 36)" fill="#dcb6f4"/>
  <rect id="Rectángulo_72" data-name="Rectángulo 72" width="5" height="5" transform="translate(5 67)" fill="#dcb6f4"/>
  <rect id="Rectángulo_73" data-name="Rectángulo 73" width="5" height="5" transform="translate(10 36)" fill="#dcb6f4"/>
  <rect id="Rectángulo_74" data-name="Rectángulo 74" width="5" height="5" transform="translate(85 36)" fill="#dcb6f4"/>
  <rect id="Rectángulo_75" data-name="Rectángulo 75" width="5" height="5" transform="translate(100 31)" fill="#dcb6f4"/>
  <rect id="Rectángulo_76" data-name="Rectángulo 76" width="5" height="5" transform="translate(146 69)" fill="#dcb6f4"/>
  <rect id="Rectángulo_77" data-name="Rectángulo 77" width="5" height="5" transform="translate(144 41)" fill="#dcb6f4"/>
  <rect id="Rectángulo_78" data-name="Rectángulo 78" width="5" height="5" transform="translate(90 26)" fill="#dcb6f4"/>
  <g id="Grupo_102" data-name="Grupo 102">
    <g id="Grupo_101" data-name="Grupo 101" clip-path="url(#clip-path)">
      <path id="Trazado_16" data-name="Trazado 16" d="M98.717,107.08a59.159,59.159,0,0,0,33.373-53.169c0-1.723-.083-3.477-.253-5.365a2.546,2.546,0,0,0-2.314-2.29V44.81a14.019,14.019,0,0,0-10.269-13.483v-1.92a14.021,14.021,0,0,0-14-14h-1.457A16.554,16.554,0,0,0,87.306,0h-.282A16.532,16.532,0,0,0,73.045,7.732,16.532,16.532,0,0,0,59.067,0h-.282A16.553,16.553,0,0,0,42.3,15.4H40.84a14.02,14.02,0,0,0-14,14v1.92A14.019,14.019,0,0,0,16.567,44.81v1.445a2.547,2.547,0,0,0-2.314,2.29C14.082,50.434,14,52.188,14,53.911A59.159,59.159,0,0,0,47.373,107.08v8.443H44.806v5.134h2.567v5.134H44.806v5.134h2.567v7.7a2.567,2.567,0,0,0,2.567,2.567h2.567v5.134a7.709,7.709,0,0,0,7.7,7.7H85.881a7.709,7.709,0,0,0,7.7-7.7V141.2H96.15a2.568,2.568,0,0,0,2.567-2.567v-7.7h2.567v-5.134H98.717v-5.134h2.567v-5.134H98.717ZM87.024,5.134h.282A11.387,11.387,0,0,1,98.6,15.4H88.448v5.134h16.8a8.88,8.88,0,0,1,8.87,8.87v1.4h-7.7v5.134h9.1a8.88,8.88,0,0,1,8.87,8.87v1.4H75.613V16.546A11.424,11.424,0,0,1,87.024,5.134M21.7,44.81a8.88,8.88,0,0,1,8.87-8.87h9.1V30.806h-7.7v-1.4a8.88,8.88,0,0,1,8.87-8.87h16.8V15.4H47.489a11.387,11.387,0,0,1,11.3-10.269h.282A11.424,11.424,0,0,1,70.478,16.546V46.209H21.7Zm-2.567,9.1c0-.839.022-1.69.067-2.567H126.89c.045.877.067,1.728.067,2.567A54.013,54.013,0,0,1,95.1,103.1a2.554,2.554,0,0,0-1.489,2.153h-18V88.347L92.831,71.129a2.567,2.567,0,0,0-1.815-4.382H55.075v5.134H84.818L71.23,85.469a2.568,2.568,0,0,0-.752,1.815v17.97h-18a2.55,2.55,0,0,0-1.488-2.153A54.013,54.013,0,0,1,19.134,53.911m33.373,56.478H93.583v5.134H52.508ZM88.448,146.33a2.571,2.571,0,0,1-2.567,2.567H60.209a2.571,2.571,0,0,1-2.567-2.567V141.2H88.448Zm5.134-10.269H52.508v-5.134H93.583Zm0-10.269H52.508v-5.134H93.583Z" transform="translate(3.97)" fill="#dcb6f4"/>
      <path id="Trazado_17" data-name="Trazado 17" d="M109.7,25.4a7.7,7.7,0,1,0-7.7-7.7,7.709,7.709,0,0,0,7.7,7.7m0-10.269a2.567,2.567,0,1,1-2.567,2.567,2.571,2.571,0,0,1,2.567-2.567" transform="translate(28.927 2.836)" fill="#dcb6f4"/>
      <path id="Trazado_18" data-name="Trazado 18" d="M95.7,90a7.7,7.7,0,1,0,7.7,7.7A7.709,7.709,0,0,0,95.7,90m0,10.269A2.567,2.567,0,1,1,98.269,97.7a2.571,2.571,0,0,1-2.567,2.567" transform="translate(24.956 25.523)" fill="#dcb6f4"/>
      <path id="Trazado_19" data-name="Trazado 19" d="M10.269,66A10.269,10.269,0,1,0,20.538,76.269,10.281,10.281,0,0,0,10.269,66m0,15.4A5.134,5.134,0,1,1,15.4,76.269,5.14,5.14,0,0,1,10.269,81.4" transform="translate(0 18.717)" fill="#dcb6f4"/>
      <path id="Trazado_20" data-name="Trazado 20" d="M116.269,70h-5.134v5.134H106v5.134h5.134V85.4h5.134V80.269H121.4V75.134h-5.134Z" transform="translate(30.061 19.852)" fill="#dcb6f4"/>
      <path id="Trazado_21" data-name="Trazado 21" d="M15.134,17.4h5.134V12.269H25.4V7.134H20.269V2H15.134V7.134H10v5.134h5.134Z" transform="translate(2.836 0.567)" fill="#dcb6f4"/>
      <path id="Trazado_22" data-name="Trazado 22" d="M28.269,88H23.134v5.134H18v5.134h5.134V103.4h5.134V98.269H33.4V93.134H28.269Z" transform="translate(5.105 24.956)" fill="#dcb6f4"/>
    </g>
  </g>
</svg>
