<svg xmlns="http://www.w3.org/2000/svg" xmlns:xlink="http://www.w3.org/1999/xlink" width="146" height="140" viewBox="0 0 146 140">
  <defs>
    <clipPath id="clip-path">
      <rect id="Rectángulo_112" data-name="Rectángulo 112" width="146" height="140" transform="translate(-0.297 0.28)" fill="none"/>
    </clipPath>
  </defs>
  <g id="Grupo_120" data-name="Grupo 120" transform="translate(0.297 -0.28)">
    <g id="Grupo_119" data-name="Grupo 119" clip-path="url(#clip-path)">
      <path id="Trazado_39" data-name="Trazado 39" d="M64.658,56A26.658,26.658,0,1,0,91.316,82.658,26.688,26.688,0,0,0,64.658,56m0,48.469A21.811,21.811,0,1,1,86.469,82.658a21.835,21.835,0,0,1-21.811,21.811" transform="translate(8.045 11.856)" fill="#dcb6f4"/>
      <path id="Trazado_40" data-name="Trazado 40" d="M51.415,67.391l2.972,3.829a12.136,12.136,0,0,1,3.372-1.85l-1.63-4.563a16.962,16.962,0,0,0-4.715,2.585" transform="translate(10.886 13.721)" fill="#dcb6f4"/>
      <path id="Trazado_41" data-name="Trazado 41" d="M46,79.662h4.847a12.042,12.042,0,0,1,2.082-6.792l-4.012-2.723A16.886,16.886,0,0,0,46,79.662" transform="translate(9.739 14.852)" fill="#dcb6f4"/>
      <path id="Trazado_42" data-name="Trazado 42" d="M138.136,32.847H101.369a7.227,7.227,0,0,0-5.141,2.13l-4.137,4.137v-8.69A2.423,2.423,0,0,0,89.667,28H55.739a2.423,2.423,0,0,0-2.423,2.423V42.541H48.469V35.27a2.423,2.423,0,0,0-2.423-2.423H26.658a2.424,2.424,0,0,0-2.423,2.423v7.27H19.388V35.27a2.423,2.423,0,0,0-2.423-2.423H7.27A2.424,2.424,0,0,0,4.847,35.27v7.717A7.257,7.257,0,0,0,0,49.811v77.55a7.278,7.278,0,0,0,7.27,7.27H138.136a7.278,7.278,0,0,0,7.27-7.27V40.117a7.278,7.278,0,0,0-7.27-7.27M87.244,42.541H82.4V32.847h4.847Zm-9.694,0H67.856V32.847H77.55ZM58.163,32.847h4.847v9.694H58.163ZM29.081,37.694H43.622v4.847H29.081Zm-19.388,0h4.847v4.847H9.694ZM4.847,49.811A2.426,2.426,0,0,1,7.27,47.388h82.4a2.432,2.432,0,0,0,1.715-.711L99.654,38.4a2.415,2.415,0,0,1,1.715-.71h36.767a2.426,2.426,0,0,1,2.423,2.423V66.775h-38.8c-.12-.161-.263-.3-.387-.457-.589-.756-1.209-1.482-1.854-2.188-.252-.276-.5-.563-.756-.831a36.4,36.4,0,0,0-2.728-2.549c-.041-.035-.078-.074-.119-.109a36.583,36.583,0,0,0-3.235-2.391c-.188-.125-.385-.23-.576-.35q-1.383-.878-2.843-1.633c-.294-.153-.6-.288-.9-.433q-1.343-.645-2.743-1.183c-.338-.13-.675-.254-1.017-.373-.922-.321-1.86-.6-2.814-.846-.356-.092-.708-.194-1.068-.275-.978-.222-1.974-.389-2.98-.53-.337-.048-.668-.116-1.006-.155a34.458,34.458,0,0,0-8.077,0c-.338.039-.669.107-1.006.155-1.006.141-2,.308-2.98.53-.36.081-.711.183-1.068.275-.954.247-1.891.525-2.814.846-.342.119-.679.244-1.017.373q-1.4.534-2.743,1.183c-.3.144-.6.28-.9.433q-1.463.752-2.843,1.633c-.19.12-.388.225-.576.35a36.584,36.584,0,0,0-3.235,2.391c-.041.035-.078.074-.119.109A36.4,36.4,0,0,0,46.643,63.3c-.261.268-.5.555-.756.831-.645.706-1.265,1.432-1.854,2.188-.124.158-.267.3-.387.457H4.847Zm69.484,70.2c-.521.027-1.036.078-1.563.079-.347,0-.687-.035-1.031-.045a31.289,31.289,0,0,1-13.909-3.7c-.052-.028-.105-.051-.158-.079-.712-.389-1.4-.822-2.076-1.263-.227-.148-.457-.286-.679-.439-.567-.389-1.11-.809-1.648-1.234-.313-.246-.625-.491-.931-.75-.482-.411-.949-.84-1.406-1.278q-.465-.445-.91-.906c-.427-.443-.841-.9-1.24-1.364-.3-.349-.584-.706-.866-1.068-.351-.448-.7-.9-1.026-1.37-.305-.439-.59-.891-.872-1.343-.263-.419-.528-.837-.772-1.27-.316-.563-.6-1.141-.881-1.723-.171-.354-.354-.7-.513-1.064-.31-.708-.578-1.432-.835-2.16-.093-.268-.2-.526-.292-.8-.268-.834-.487-1.684-.686-2.539-.045-.2-.107-.382-.149-.578-.193-.91-.33-1.833-.442-2.762-.019-.16-.056-.314-.073-.474a31.452,31.452,0,0,1-.176-3.3c0-.975.059-1.938.147-2.891.027-.29.064-.578.1-.866q.124-1.029.311-2.036c.056-.3.107-.59.17-.883q.258-1.191.6-2.345c.04-.131.067-.264.108-.394.271-.864.589-1.707.931-2.537.133-.322.282-.637.427-.955.234-.519.479-1.03.739-1.534.184-.354.373-.706.572-1.055.263-.463.543-.914.828-1.362.212-.332.416-.669.64-.995.118-.17.251-.328.372-.5q.869-1.209,1.837-2.318c.217-.248.44-.49.664-.731q.907-.976,1.885-1.866c.224-.2.443-.413.673-.611a31.6,31.6,0,0,1,2.7-2.1c.011-.007.019-.016.03-.023a31.357,31.357,0,0,1,3.129-1.879c.127-.068.261-.124.389-.188q1.37-.7,2.805-1.26c.262-.1.527-.2.791-.291.847-.307,1.709-.573,2.581-.806.31-.084.619-.168.933-.241.871-.2,1.755-.359,2.644-.488.305-.044.606-.1.914-.139a29.378,29.378,0,0,1,7.166,0c.308.035.608.1.914.139.889.13,1.773.285,2.644.488.314.073.623.158.933.241.872.233,1.734.5,2.581.806.264.1.53.188.791.291q1.432.562,2.805,1.26c.128.064.262.12.389.188a31.357,31.357,0,0,1,3.129,1.879c.011.007.019.016.03.023a31.6,31.6,0,0,1,2.7,2.1c.229.2.448.407.673.611q.978.891,1.885,1.866c.224.241.447.482.664.731q.969,1.111,1.837,2.318c.116.161.245.314.357.477.428.618.813,1.257,1.192,1.9.138.231.288.454.42.691.37.664.7,1.347,1.015,2.033.109.234.233.459.337.7.3.689.556,1.4.806,2.1.088.251.193.494.275.749.223.688.4,1.389.576,2.091.073.292.161.578.225.874.144.656.244,1.322.345,1.987.056.362.124.72.166,1.086.071.6.1,1.211.138,1.819.027.45.062.9.069,1.354.008.544-.016,1.092-.034,1.638s-.035,1.068-.081,1.595c-.036.441-.1.883-.154,1.326-.092.709-.185,1.418-.324,2.112-.022.114-.047.227-.07.34a31.57,31.57,0,0,1-27.455,24.8c-.582.061-1.157.074-1.735.1M21.811,83.739a2.423,2.423,0,1,1-2.423-2.423,2.425,2.425,0,0,1,2.423,2.423m118.748,43.622a2.426,2.426,0,0,1-2.423,2.423H7.27a2.426,2.426,0,0,1-2.423-2.423V71.622H16.964v5.294a7.27,7.27,0,1,0,4.847,0V71.622H40.565c-.08.15-.133.313-.212.464q-.772,1.51-1.409,3.1c-.16.4-.3.811-.446,1.218q-.467,1.307-.835,2.655c-.125.454-.247.908-.353,1.367-.213.922-.377,1.859-.519,2.805-.062.416-.143.825-.19,1.243a34.929,34.929,0,0,0-.047,7.923c.019.185.062.365.085.55.128,1.074.288,2.139.51,3.182.048.231.124.456.177.686.228.981.479,1.956.785,2.906.1.322.236.633.349.952.294.831.6,1.658.949,2.46.185.424.4.834.6,1.25.322.663.643,1.326,1,1.965.282.5.594.99.9,1.481.325.517.647,1.034,1,1.533.38.545.785,1.071,1.195,1.6.322.412.647.82.986,1.217.464.544.948,1.071,1.444,1.589q.505.525,1.031,1.028c.3.29.574.6.886.883.244.217.507.4.754.607.348.3.705.576,1.064.858.624.492,1.252.974,1.9,1.421.264.182.538.347.807.522.775.5,1.556.995,2.362,1.436.087.047.178.087.265.133a35.788,35.788,0,0,0,15.89,4.229c.4.013.8.061,1.206.061.024,0,.048,0,.073,0,.58,0,1.166-.059,1.75-.088.685-.034,1.375-.048,2.049-.12.084-.01.166-.006.25-.016a35.887,35.887,0,0,0,6.645-1.4c.03-.01.059-.021.088-.029a36.238,36.238,0,0,0,24.688-27.107c.036-.17.073-.339.107-.51.062-.319.144-.628.2-.949.1-.6.154-1.2.223-1.8.034-.287.079-.571.107-.86.1-1.126.168-2.25.171-3.369,0-.033,0-.065,0-.1,0-.234-.03-.46-.035-.694-.017-.854-.053-1.706-.13-2.553-.042-.482-.11-.956-.172-1.433-.08-.619-.171-1.237-.282-1.85-.093-.51-.2-1.015-.309-1.517-.131-.577-.284-1.149-.443-1.718-.137-.492-.268-.985-.425-1.47-.2-.611-.433-1.211-.665-1.812-.179-.467-.348-.937-.545-1.393-.371-.853-.769-1.7-1.208-2.523h35.72Z" transform="translate(0 5.928)" fill="#dcb6f4"/>
      <path id="Trazado_43" data-name="Trazado 43" d="M86.423,54.541h9.694a2.423,2.423,0,0,0,2.423-2.423V42.423A2.423,2.423,0,0,0,96.117,40H86.423A2.423,2.423,0,0,0,84,42.423v9.694a2.423,2.423,0,0,0,2.423,2.423m2.423-9.694h4.847v4.847H88.847Z" transform="translate(17.784 8.469)" fill="#dcb6f4"/>
      <path id="Trazado_44" data-name="Trazado 44" d="M102.423,54.541h9.694a2.424,2.424,0,0,0,2.423-2.423V42.423A2.424,2.424,0,0,0,112.117,40h-9.694A2.423,2.423,0,0,0,100,42.423v9.694a2.423,2.423,0,0,0,2.423,2.423m2.423-9.694h4.847v4.847h-4.847Z" transform="translate(21.172 8.469)" fill="#dcb6f4"/>
      <path id="Trazado_45" data-name="Trazado 45" d="M107.27,110.541a7.27,7.27,0,1,0-7.27-7.27,7.278,7.278,0,0,0,7.27,7.27m0-9.694a2.423,2.423,0,1,1-2.423,2.423,2.426,2.426,0,0,1,2.423-2.423" transform="translate(21.172 20.325)" fill="#dcb6f4"/>
      <path id="Trazado_46" data-name="Trazado 46" d="M84,103.27A7.27,7.27,0,1,0,91.27,96,7.278,7.278,0,0,0,84,103.27m9.694,0a2.423,2.423,0,1,1-2.423-2.423,2.426,2.426,0,0,1,2.423,2.423" transform="translate(17.784 20.325)" fill="#dcb6f4"/>
      <path id="Trazado_47" data-name="Trazado 47" d="M107.27,24.541A7.27,7.27,0,1,0,100,17.27a7.278,7.278,0,0,0,7.27,7.27m0-9.694a2.423,2.423,0,1,1-2.423,2.423,2.426,2.426,0,0,1,2.423-2.423" transform="translate(21.172 2.117)" fill="#dcb6f4"/>
      <path id="Trazado_48" data-name="Trazado 48" d="M65.27,22.541A7.27,7.27,0,1,0,58,15.27a7.278,7.278,0,0,0,7.27,7.27m0-9.694a2.423,2.423,0,1,1-2.423,2.423,2.426,2.426,0,0,1,2.423-2.423" transform="translate(12.28 1.694)" fill="#dcb6f4"/>
      <rect id="Rectángulo_101" data-name="Rectángulo 101" width="5" height="5" transform="translate(9.703 58.28)" fill="#dcb6f4"/>
      <rect id="Rectángulo_102" data-name="Rectángulo 102" width="5" height="5" transform="translate(9.703 126.28)" fill="#dcb6f4"/>
      <rect id="Rectángulo_103" data-name="Rectángulo 103" width="5" height="5" transform="translate(9.703 116.28)" fill="#dcb6f4"/>
      <rect id="Rectángulo_104" data-name="Rectángulo 104" width="5" height="5" transform="translate(9.703 106.28)" fill="#dcb6f4"/>
      <rect id="Rectángulo_105" data-name="Rectángulo 105" width="5" height="5" transform="translate(130.703 82.28)" fill="#dcb6f4"/>
      <rect id="Rectángulo_106" data-name="Rectángulo 106" width="5" height="5" transform="translate(120.703 82.28)" fill="#dcb6f4"/>
      <rect id="Rectángulo_107" data-name="Rectángulo 107" width="5" height="5" transform="translate(33.703 24.28)" fill="#dcb6f4"/>
      <rect id="Rectángulo_108" data-name="Rectángulo 108" width="5" height="5" transform="translate(16.703 14.28)" fill="#dcb6f4"/>
      <rect id="Rectángulo_109" data-name="Rectángulo 109" width="5" height="5" transform="translate(91.703 0.28)" fill="#dcb6f4"/>
      <rect id="Rectángulo_110" data-name="Rectángulo 110" width="5" height="5" transform="translate(19.703 58.28)" fill="#dcb6f4"/>
      <rect id="Rectángulo_111" data-name="Rectángulo 111" width="5" height="5" transform="translate(28.703 58.28)" fill="#dcb6f4"/>
      <path id="Trazado_49" data-name="Trazado 49" d="M80,18.847v4.847h4.847v4.847h4.847V23.694h4.847V18.847H89.694V14H84.847v4.847Z" transform="translate(16.938 2.964)" fill="#dcb6f4"/>
      <path id="Trazado_50" data-name="Trazado 50" d="M42.847,20.541h4.847V15.694h4.847V10.847H47.694V6H42.847v4.847H38v4.847h4.847Z" transform="translate(8.045 1.27)" fill="#dcb6f4"/>
    </g>
  </g>
</svg>
