<svg xmlns="http://www.w3.org/2000/svg" xmlns:xlink="http://www.w3.org/1999/xlink" width="146" height="146" viewBox="0 0 146 146">
  <defs>
    <clipPath id="clip-path">
      <rect id="Rectángulo_52" data-name="Rectángulo 52" width="146" height="146" transform="translate(-0.391 -0.391)" fill="none"/>
    </clipPath>
  </defs>
  <g id="Grupo_88" data-name="Grupo 88" transform="translate(0.337 0.337)">
    <g id="Grupo_87" data-name="Grupo 87" transform="translate(0.054 0.054)" clip-path="url(#clip-path)">
      <path id="Trazado_9" data-name="Trazado 9" d="M145.318,48.439A48.352,48.352,0,0,0,72.658,6.554,48.391,48.391,0,1,0,24.674,90.6a48.441,48.441,0,1,0,95.968,0,48.442,48.442,0,0,0,24.676-42.161m-140.474,0A43.51,43.51,0,0,1,68.086,9.575,47.682,47.682,0,0,0,48.893,54.717a48.559,48.559,0,0,0-23.271,30.8A43.562,43.562,0,0,1,4.844,48.439m86.988,3.974a48.235,48.235,0,0,0-38.347,0c-.121-1.31-.2-2.633-.2-3.974A43.581,43.581,0,0,1,72.658,12.216,43.582,43.582,0,0,1,92.035,48.439c0,1.342-.084,2.664-.2,3.974M72.658,84.661A43.7,43.7,0,0,1,54.225,57.428a43.056,43.056,0,0,1,36.866,0A43.7,43.7,0,0,1,72.658,84.661M95.475,59.8A43.676,43.676,0,0,1,115.31,87.887,43.1,43.1,0,0,1,77.23,87.3,48.479,48.479,0,0,0,95.475,59.8M68.086,87.3a43.1,43.1,0,0,1-38.08.586A43.68,43.68,0,0,1,49.84,59.8,48.479,48.479,0,0,0,68.086,87.3m48.168,9.576a43.595,43.595,0,0,1-87.19,0c0-1.342.081-2.664.2-3.976a48.115,48.115,0,0,0,43.394-2.578A48.112,48.112,0,0,0,116.051,92.9c.12,1.311.2,2.634.2,3.976m3.442-11.364a48.561,48.561,0,0,0-23.272-30.8A47.647,47.647,0,0,0,77.23,9.575a43.538,43.538,0,0,1,42.465,75.939" transform="translate(-0.049 -0.049)" fill="#212832"/>
    </g>
  </g>
</svg>
