<svg id="Grupo_115" data-name="Grupo 115" xmlns="http://www.w3.org/2000/svg" xmlns:xlink="http://www.w3.org/1999/xlink" width="189.28" height="176.662" viewBox="0 0 189.28 176.662">
  <defs>
    <clipPath id="clip-path">
      <rect id="Rectángulo_99" data-name="Rectángulo 99" width="189.28" height="176.662" fill="none"/>
    </clipPath>
  </defs>
  <g id="Grupo_114" data-name="Grupo 114" clip-path="url(#clip-path)">
    <path id="Trazado_26" data-name="Trazado 26" d="M97.621,77.095h12.618a3.154,3.154,0,1,1,0,6.309H88.156v6.31h12.62v6.31h6.31v-6.31h3.154a9.464,9.464,0,1,0,0-18.928H97.621a3.154,3.154,0,1,1,0-6.309H119.7v-6.31H107.085v-6.31h-6.31v6.31H97.621a9.464,9.464,0,1,0,0,18.928" transform="translate(19.103 11.237)" fill="#573ae7"/>
    <path id="Trazado_27" data-name="Trazado 27" d="M66.249,44.078H34.7a34.7,34.7,0,0,0,0,69.4H66.249a3.152,3.152,0,0,0,3.154-3.155V91.4a3.152,3.152,0,0,0-3.154-3.155H34.7a9.464,9.464,0,0,1,0-18.928H66.249A3.152,3.152,0,0,0,69.4,66.161V47.233a3.152,3.152,0,0,0-3.154-3.155m-3.155,63.094h-6.31V94.554h6.31ZM18.928,78.78A15.792,15.792,0,0,0,34.7,94.554H50.474v12.618H34.7a28.392,28.392,0,0,1,0-56.784H50.474V63.006H34.7A15.792,15.792,0,0,0,18.928,78.78M63.094,63.006h-6.31V50.388h6.31Z" transform="translate(0 9.551)" fill="#573ae7"/>
    <path id="Trazado_28" data-name="Trazado 28" d="M75.025,56.943V55.011a3.151,3.151,0,0,0-4.153-2.991l-9.465,3.155,2,5.982,5.311-1.769v1.932a3.152,3.152,0,0,0,3.155,3.155,3.094,3.094,0,0,0,1-.163l9.463-3.155-2-5.982Z" transform="translate(13.306 11.236)" fill="#573ae7"/>
    <path id="Trazado_29" data-name="Trazado 29" d="M75.025,88.057V86.125a3.151,3.151,0,0,0-4.153-2.991l-9.465,3.155,2,5.982L68.715,90.5v1.932A3.152,3.152,0,0,0,71.87,95.59a3.094,3.094,0,0,0,1-.163l9.463-3.155-2-5.982Z" transform="translate(13.306 17.978)" fill="#573ae7"/>
    <path id="Trazado_30" data-name="Trazado 30" d="M161.19,39.109a9.45,9.45,0,0,0-6.31-8.883v-6.89h-6.31v6.309h-6.31V23.336h-6.309v6.309H132.8a3.153,3.153,0,0,0-3.155,3.155V58.037a3.153,3.153,0,0,0,3.155,3.155h3.155V67.5h6.309V61.192h6.31V67.5h6.31v-6.89a9.375,9.375,0,0,0,3.847-15.193,9.39,9.39,0,0,0,2.463-6.309m-25.238-3.155h15.773a3.155,3.155,0,0,1,0,6.31H135.952Zm15.773,18.928H135.952v-6.31h15.773a3.155,3.155,0,0,1,0,6.31" transform="translate(28.092 5.057)" fill="#573ae7"/>
    <path id="Trazado_31" data-name="Trazado 31" d="M133.013,88.157a12.63,12.63,0,0,0-12.618,12.618h-6.31v6.31h6.31v6.31h-6.31V119.7h6.31a12.618,12.618,0,1,0,25.237,0V116.55h-6.309V119.7a6.31,6.31,0,0,1-12.62,0h6.31v-6.309H126.7v-6.31h6.31v-6.31H126.7a6.31,6.31,0,0,1,12.62,0v3.155h6.309v-3.155a12.63,12.63,0,0,0-12.618-12.618" transform="translate(24.721 19.103)" fill="#573ae7"/>
    <path id="Trazado_32" data-name="Trazado 32" d="M102.807,44.856a9.464,9.464,0,1,0-9.465-9.463,9.475,9.475,0,0,0,9.465,9.463m0-12.618a3.155,3.155,0,1,1-3.155,3.155,3.157,3.157,0,0,1,3.155-3.155" transform="translate(20.226 5.618)" fill="#573ae7"/>
    <path id="Trazado_33" data-name="Trazado 33" d="M153.756,76.877a9.465,9.465,0,1,0-9.465,9.465,9.475,9.475,0,0,0,9.465-9.465m-9.465,3.155a3.155,3.155,0,1,1,3.155-3.155,3.157,3.157,0,0,1-3.155,3.155" transform="translate(29.216 14.608)" fill="#573ae7"/>
    <path id="Trazado_34" data-name="Trazado 34" d="M95.028,103.714a9.464,9.464,0,1,0,9.465,9.463,9.475,9.475,0,0,0-9.465-9.463m0,12.618a3.155,3.155,0,1,1,3.155-3.155,3.157,3.157,0,0,1-3.155,3.155" transform="translate(18.541 22.474)" fill="#573ae7"/>
    <path id="Trazado_35" data-name="Trazado 35" d="M91.528,22.99V16.68h-6.31V10.372H78.909V16.68H72.6v6.31h6.31V29.3h6.309V22.99Z" transform="translate(15.732 2.247)" fill="#573ae7"/>
    <path id="Trazado_36" data-name="Trazado 36" d="M125.58,18.928h6.31v-6.31H138.2V6.31H131.89V0h-6.31V6.31h-6.31v6.309h6.31Z" transform="translate(25.845)" fill="#573ae7"/>
    <path id="Trazado_37" data-name="Trazado 37" d="M74.847,108.9h-6.31v6.31H62.229v6.309h6.309v6.31h6.31v-6.31h6.31v-6.309h-6.31Z" transform="translate(13.484 23.597)" fill="#573ae7"/>
    <path id="Trazado_38" data-name="Trazado 38" d="M116.332,129.642h-6.31v6.31h-6.309v6.309h6.309v6.31h6.31v-6.31h6.31v-6.309h-6.31Z" transform="translate(22.474 28.092)" fill="#573ae7"/>
    <rect id="Rectángulo_89" data-name="Rectángulo 89" width="6.31" height="6.31" transform="translate(138.806 53.629)" fill="#573ae7"/>
    <rect id="Rectángulo_90" data-name="Rectángulo 90" width="6.31" height="6.31" transform="translate(119.878 12.618)" fill="#573ae7"/>
    <rect id="Rectángulo_91" data-name="Rectángulo 91" width="6.31" height="6.31" transform="translate(107.26 154.579)" fill="#573ae7"/>
    <rect id="Rectángulo_92" data-name="Rectángulo 92" width="6.31" height="6.31" transform="translate(148.269 82.022)" fill="#573ae7"/>
    <rect id="Rectángulo_93" data-name="Rectángulo 93" width="6.31" height="6.31" transform="translate(119.878 116.723)" fill="#573ae7"/>
    <rect id="Rectángulo_94" data-name="Rectángulo 94" width="6.31" height="6.31" transform="translate(164.044 164.043)" fill="#573ae7"/>
    <rect id="Rectángulo_95" data-name="Rectángulo 95" width="6.31" height="6.31" transform="translate(179.817 132.496)" fill="#573ae7"/>
    <rect id="Rectángulo_96" data-name="Rectángulo 96" width="6.31" height="6.31" transform="translate(94.64 47.32)" fill="#573ae7"/>
    <rect id="Rectángulo_97" data-name="Rectángulo 97" width="6.31" height="6.31" transform="translate(141.96 28.393)" fill="#573ae7"/>
    <rect id="Rectángulo_98" data-name="Rectángulo 98" width="6.31" height="6.31" transform="translate(173.507 6.31)" fill="#573ae7"/>
  </g>
</svg>
