<svg xmlns="http://www.w3.org/2000/svg" xmlns:xlink="http://www.w3.org/1999/xlink" width="138" height="122" viewBox="0 0 138 122">
  <defs>
    <clipPath id="clip-path">
      <rect id="Rectángulo_85" data-name="Rectángulo 85" width="138" height="122" transform="translate(-0.043 0)"/>
    </clipPath>
  </defs>
  <g id="Grupo_107" data-name="Grupo 107" transform="translate(0.043)">
    <g id="Grupo_106" data-name="Grupo 106" clip-path="url(#clip-path)">
      <path id="Trazado_23" data-name="Trazado 23" d="M137.913,33.152V29.174a2.586,2.586,0,0,0-.057-.285c-.009-.08.021-.156.005-.236l-5.3-26.522A2.655,2.655,0,0,0,129.957,0h-122a2.655,2.655,0,0,0-2.6,2.131L.052,28.653c-.016.08.015.156.005.236A2.582,2.582,0,0,0,0,29.174v3.978A14.593,14.593,0,0,0,7.957,46.128v59.959H5.3a2.651,2.651,0,0,0-2.652,2.652v5.3A7.965,7.965,0,0,0,10.609,122H127.3a7.965,7.965,0,0,0,7.957-7.957v-5.3a2.651,2.651,0,0,0-2.652-2.652h-2.652V46.128a14.593,14.593,0,0,0,7.957-12.976M127.783,5.3l4.243,21.217H113.793L111.671,5.3Zm-34.957,0h13.512l2.122,21.217H92.826Zm0,26.522h15.913v2.652a7.957,7.957,0,0,1-15.913,0ZM71.609,5.3H87.522V26.522H71.609Zm0,26.522H87.522v2.652a7.957,7.957,0,0,1-15.913,0ZM50.391,5.3H66.3V26.522H50.391Zm0,26.522H66.3v2.652a7.957,7.957,0,0,1-15.913,0ZM31.575,5.3H45.087V26.522H29.454Zm-2.4,26.522H45.087v2.652a7.957,7.957,0,0,1-15.913,0ZM37.13,47.739a13.212,13.212,0,0,0,10.609-5.387,13.14,13.14,0,0,0,21.217,0,13.14,13.14,0,0,0,21.217,0,13.187,13.187,0,0,0,21.548-.4,14.732,14.732,0,0,0,2.322,2.443V95.478H23.87V44.395a14.731,14.731,0,0,0,2.322-2.443A13.252,13.252,0,0,0,37.13,47.739M10.13,5.3H26.242L24.12,26.522H5.887ZM5.3,33.152V31.826H23.87v1.326a9.283,9.283,0,0,1-18.565,0M55.7,116.7H10.609a2.653,2.653,0,0,1-2.652-2.652v-2.652H55.7Zm21.217,0H61v-5.3H76.913ZM13.261,106.087V47.672c.438.04.879.068,1.326.068a14.492,14.492,0,0,0,3.978-.566V98.13a2.651,2.651,0,0,0,2.652,2.652H116.7a2.651,2.651,0,0,0,2.652-2.652V47.173a14.492,14.492,0,0,0,3.978.566c.447,0,.888-.028,1.326-.068v58.415Zm116.7,7.957A2.653,2.653,0,0,1,127.3,116.7H82.217v-5.3h47.739Zm-6.63-71.609a9.3,9.3,0,0,1-9.283-9.283V31.826h18.565v1.326a9.3,9.3,0,0,1-9.283,9.283"/>
      <rect id="Rectángulo_81" data-name="Rectángulo 81" width="6" height="6" transform="translate(49.956 82)"/>
      <rect id="Rectángulo_82" data-name="Rectángulo 82" width="5" height="6" transform="translate(60.956 82)"/>
      <rect id="Rectángulo_83" data-name="Rectángulo 83" width="5" height="6" transform="translate(71.956 82)"/>
      <rect id="Rectángulo_84" data-name="Rectángulo 84" width="6" height="6" transform="translate(81.956 82)"/>
      <path id="Trazado_24" data-name="Trazado 24" d="M86.348,42H67.783a5.311,5.311,0,0,0-5.3,5.3v2.652h-5.3V47.3a5.311,5.311,0,0,0-5.3-5.3H33.3A5.311,5.311,0,0,0,28,47.3V57.913a5.311,5.311,0,0,0,5.3,5.3H51.87a5.311,5.311,0,0,0,5.3-5.3V55.261h5.3v2.652a5.311,5.311,0,0,0,5.3,5.3H86.348a5.311,5.311,0,0,0,5.3-5.3V47.3a5.311,5.311,0,0,0-5.3-5.3M51.875,57.913H33.3V47.3H51.87v2.652H49.217a2.652,2.652,0,0,0,0,5.3h2.656Zm15.908,0V55.261h2.652a2.652,2.652,0,1,0,0-5.3H67.783V47.3H86.348l.005,10.609Z" transform="translate(9.13 13.696)"/>
    </g>
  </g>
</svg>
